<svg width="40" height="40" viewBox="0 0 40 40" fill="none" xmlns="http://www.w3.org/2000/svg">
<path d="M20 40C31.0457 40 40 31.0457 40 20C40 8.9543 31.0457 0 20 0C8.9543 0 0 8.9543 0 20C0 31.0457 8.9543 40 20 40Z" fill="#9F82BB"/>
<path fill-rule="evenodd" clip-rule="evenodd" d="M15.0518 25.0356L25.3476 25.1139V33.4751L15.0518 33.3967V25.0356Z" fill="#F9DCA4"/>
<path fill-rule="evenodd" clip-rule="evenodd" d="M34.6136 33.6524C32.7447 35.658 30.4825 37.2567 27.9682 38.3488C25.4538 39.441 22.7413 40.0031 20 40C19.1698 39.9999 18.3404 39.9487 17.5165 39.8466C14.9897 39.4845 12.545 38.6865 10.2912 37.488C8.38918 36.4294 6.67185 35.0686 5.20645 33.4589L6.03687 31.4524L15.0498 27.4317C15.0498 30.367 15.8977 33.9171 19.8647 33.9773C24.7644 34.0511 25.3469 30.4336 25.3469 27.4078L33.6252 31.4738L34.6136 33.6524Z" fill="#434955"/>
<path opacity="0.11" fill-rule="evenodd" clip-rule="evenodd" d="M25.3502 25.099V27.4162C25.3482 27.672 25.3268 27.9273 25.2861 28.1799C25.2352 28.4917 25.1494 28.7967 25.0304 29.0893C21.5521 31.7845 16.0084 29.5735 15.1236 24.9696L25.3502 25.099Z" fill="black"/>
<path fill-rule="evenodd" clip-rule="evenodd" d="M20.1482 5.4576C33.9223 5.4576 28.5547 28.2835 20.1482 28.2835C12.2091 28.2835 6.37413 5.4576 20.1482 5.4576Z" fill="#FFE8BE"/>
<path fill-rule="evenodd" clip-rule="evenodd" d="M11.8867 15.5637C9.89963 16.4304 11.5889 20.5385 12.8394 20.5204C12.3208 18.913 12.0008 17.2489 11.8867 15.5637ZM28.5695 15.5631C30.5566 16.4298 28.8673 20.5385 27.6174 20.5197C28.1357 18.9125 28.4554 17.2479 28.5695 15.5631Z" fill="#F9DCA4"/>
<path fill-rule="evenodd" clip-rule="evenodd" d="M15.0498 27.4317C12.0478 28.1449 9.16788 29.2982 6.5035 30.8544C5.43878 31.466 5.46467 32.4071 5.70286 32.7482C6.55464 33.9663 9.29574 32.4103 10.2912 31.9974C11.9923 31.2652 13.7294 30.6195 15.4957 30.0628C15.1357 29.2349 14.9827 28.3319 15.0498 27.4317Z" fill="#677079"/>
<path fill-rule="evenodd" clip-rule="evenodd" d="M20.2 39.2395C18.2407 37.822 15.0783 33.9514 15.0498 29.3929C15.0498 34.3637 25.3475 34.3443 25.3475 29.3735C24.9255 34.5748 22.1223 37.9036 20.2 39.2395Z" fill="white"/>
<path fill-rule="evenodd" clip-rule="evenodd" d="M25.4221 27.2861C28.1887 28.094 30.8407 29.2525 33.3134 30.7333C34.3781 31.345 34.3522 32.2854 34.114 32.6265C33.2622 33.8446 30.5211 32.2887 29.5257 31.8764C27.5969 31.077 25.5425 30.0188 24.9755 29.9171C25.3357 29.0894 25.489 28.1863 25.4221 27.2861ZM15.0519 26.466C14.9794 31.3171 18.7794 35.6634 21.56 39.5275C21.4778 39.4116 21.6441 39.644 21.56 39.5275C21.1891 39.5061 21.0551 39.8123 20.6674 39.7508C17.2215 39.2052 13.2998 37.1845 12.2655 35.5631C12.0694 35.2563 14.4273 33.0311 14.305 32.6932C14.2389 32.5094 12.2519 32.7553 11.1218 33.112C11.0389 33.1379 11.0299 32.9579 11.0111 32.8731C10.4875 30.4705 11.3949 27.776 15.0519 26.466Z" fill="#677079"/>
<path fill-rule="evenodd" clip-rule="evenodd" d="M20.4077 38.8899C20.4384 38.8933 20.4681 38.9029 20.4949 38.918C20.5218 38.9332 20.5453 38.9536 20.5641 38.9781C20.5828 39.0026 20.5964 39.0306 20.6041 39.0605C20.6117 39.0904 20.6132 39.1216 20.6085 39.152C20.6038 39.1825 20.5929 39.2117 20.5766 39.2379C20.5603 39.2641 20.5388 39.2867 20.5135 39.3044C20.4882 39.322 20.4596 39.3344 20.4294 39.3407C20.3992 39.347 20.3681 39.3471 20.3378 39.3411C18.7295 39.0756 17.1663 38.5861 15.6938 37.8867C14.5561 37.4154 13.5601 36.6569 12.8032 35.6854C12.6284 35.4103 13.1831 34.6977 13.7676 33.9508C14.1799 33.4884 14.5368 32.9795 14.831 32.4343C14.4839 32.396 14.134 32.3897 13.7857 32.4155C13.1121 32.4302 12.4415 32.5113 11.7838 32.6576C11.7126 32.6751 11.642 32.6951 11.5741 32.7158L11.5585 32.7204C11.497 32.7363 11.4319 32.7297 11.3749 32.7016C11.3178 32.6736 11.2728 32.6261 11.2479 32.5676C11.1704 32.4012 11.1243 32.2219 11.1119 32.0388C11.0836 31.7582 11.0825 31.4756 11.1087 31.1948C11.206 30.1573 11.6005 29.1699 12.2449 28.351C12.8892 27.5321 13.7562 26.9165 14.7417 26.578C14.798 26.5554 14.861 26.5561 14.9168 26.58C14.9725 26.6038 15.0165 26.6489 15.0391 26.7052C15.0617 26.7615 15.061 26.8244 15.0371 26.8802C15.0133 26.936 14.9682 26.98 14.9119 27.0026C14.0061 27.3111 13.2084 27.8744 12.6149 28.6251C12.0213 29.3757 11.657 30.2817 11.5657 31.2343C11.5417 31.4853 11.5422 31.738 11.567 31.989C11.5751 32.0702 11.5883 32.1508 11.6064 32.2304L11.6744 32.2129C12.3647 32.0595 13.0684 31.9745 13.7754 31.9592C14.2532 31.9039 14.737 31.9793 15.1754 32.1773C15.2119 32.2008 15.2408 32.2343 15.2589 32.2738C15.263 32.2824 15.2664 32.2912 15.2692 32.3003L15.2744 32.3178C15.3579 32.6544 14.7268 33.4634 14.1268 34.2317C13.8118 34.6326 13.499 35.0352 13.1883 35.4395C13.9009 36.3383 14.8322 37.0392 15.8932 37.4751C17.3246 38.1552 18.8442 38.6314 20.4077 38.8899Z" fill="#434955"/>
<path fill-rule="evenodd" clip-rule="evenodd" d="M25.3477 26.466C25.4227 31.4634 21.2137 35.987 18.4156 39.9372C24.8603 40.0343 26.8674 36.989 28.1347 35.5624C28.3761 35.2906 25.9729 33.0311 26.0952 32.6932C26.1613 32.5094 28.1483 32.7553 29.2778 33.112C29.3613 33.1379 29.3703 32.9586 29.3891 32.8731C29.9127 30.4705 29.0053 27.776 25.3477 26.466Z" fill="#677079"/>
<path fill-rule="evenodd" clip-rule="evenodd" d="M18.9728 39.6116C18.9124 39.6064 18.8565 39.5774 18.8175 39.531C18.7785 39.4845 18.7595 39.4245 18.7647 39.3641C18.7699 39.3036 18.799 39.2478 18.8454 39.2087C18.8918 39.1697 18.9519 39.1507 19.0123 39.156C20.5656 39.2523 22.1177 38.9505 23.5217 38.279C24.9823 37.6715 26.2586 36.6926 27.2239 35.4395C27.2252 35.4369 26.767 34.8498 26.2854 34.2324C25.6854 33.4634 25.0544 32.6544 25.1378 32.3178L25.1424 32.301C25.1454 32.2917 25.1491 32.2826 25.1534 32.2738C25.1715 32.2342 25.2004 32.2005 25.2369 32.1767C25.6751 31.979 26.1587 31.9038 26.6362 31.9592C27.3434 31.9745 28.0474 32.0595 28.7378 32.2129L28.8052 32.2304C28.8233 32.1508 28.8365 32.0702 28.8446 31.989C28.8694 31.7381 28.8699 31.4853 28.8459 31.2343C28.7545 30.2818 28.3901 29.376 27.7966 28.6254C27.203 27.8749 26.4055 27.3117 25.4997 27.0032C25.4718 26.992 25.4464 26.9754 25.4249 26.9544C25.4035 26.9333 25.3863 26.9083 25.3746 26.8806C25.3628 26.853 25.3566 26.8233 25.3563 26.7932C25.356 26.7632 25.3616 26.7334 25.3728 26.7055C25.384 26.6776 25.4006 26.6522 25.4217 26.6308C25.4427 26.6093 25.4677 26.5922 25.4954 26.5804C25.523 26.5686 25.5527 26.5624 25.5828 26.5621C25.6128 26.5618 25.6427 26.5674 25.6705 26.5786C26.6558 26.9172 27.5226 27.5328 28.1668 28.3515C28.8111 29.1703 29.2056 30.1575 29.3029 31.1948C29.3291 31.4756 29.328 31.7583 29.2997 32.0388C29.2873 32.222 29.2412 32.4012 29.1637 32.5676C29.1388 32.6261 29.0937 32.6736 29.0367 32.7016C28.9797 32.7297 28.9146 32.7363 28.8531 32.7204L28.8375 32.7165C28.7685 32.6947 28.6987 32.6751 28.6285 32.6576C27.9705 32.5115 27.2997 32.4306 26.6259 32.4162C26.2778 32.3902 25.9281 32.3963 25.5812 32.4343C25.8755 32.9796 26.2327 33.4885 26.6453 33.9508C27.2291 34.699 27.7844 35.411 27.609 35.6854C26.5952 37.0129 25.2507 38.0512 23.71 38.6964C22.2347 39.4 20.604 39.7155 18.9728 39.6116Z" fill="#434955"/>
<path d="M25.9618 35.8809C26.2617 35.8809 26.5048 35.6378 26.5048 35.3379C26.5048 35.0379 26.2617 34.7948 25.9618 34.7948C25.6619 34.7948 25.4188 35.0379 25.4188 35.3379C25.4188 35.6378 25.6619 35.8809 25.9618 35.8809Z" fill="#E6E6E6"/>
<path d="M14.5159 35.8809C14.8158 35.8809 15.0589 35.6378 15.0589 35.3379C15.0589 35.0379 14.8158 34.7948 14.5159 34.7948C14.216 34.7948 13.9728 35.0379 13.9728 35.3379C13.9728 35.6378 14.216 35.8809 14.5159 35.8809Z" fill="#E6E6E6"/>
<path d="M12.5016 31.6576C12.8015 31.6576 13.0447 31.4145 13.0447 31.1146C13.0447 30.8146 12.8015 30.5715 12.5016 30.5715C12.2017 30.5715 11.9586 30.8146 11.9586 31.1146C11.9586 31.4145 12.2017 31.6576 12.5016 31.6576Z" fill="#E6E6E6"/>
<path d="M27.9626 31.6576C28.2625 31.6576 28.5056 31.4145 28.5056 31.1146C28.5056 30.8146 28.2625 30.5715 27.9626 30.5715C27.6627 30.5715 27.4195 30.8146 27.4195 31.1146C27.4195 31.4145 27.6627 31.6576 27.9626 31.6576Z" fill="#E6E6E6"/>
<path fill-rule="evenodd" clip-rule="evenodd" d="M11.0252 16.6874C11.0845 16.4003 11.2139 16.1324 11.4019 15.9074C11.386 17.5574 11.8886 19.1707 12.8388 20.5197C11.8194 10.8595 13.8271 9.1631 13.8271 9.1631C13.8271 9.1631 19.8582 13.7139 26.5579 9.1508C26.5579 9.1508 28.6802 10.8589 27.6608 20.5191C28.6802 19.0142 28.91 17.7314 28.9838 15.8621C29.2338 16.1065 29.3966 16.4262 29.4472 16.7722C29.4472 16.7722 30.5954 10.9016 28.053 7.65825C28.2835 7.29384 29.4608 6.27378 29.8246 6.29837C30.1883 6.32297 28.2712 5.52168 25.9411 5.91003C26.4944 5.32715 27.1429 4.84277 27.8589 4.47766C26.6761 4.24842 25.4685 4.17487 24.2666 4.25889C24.941 3.75128 25.6745 3.32747 26.4511 2.99676C24.579 2.42903 22.5842 2.40389 20.6983 2.92427C21.3716 2.1297 22.1761 1.45651 23.077 0.933975C23.077 0.933975 16.9365 1.27378 13.7327 5.83689C13.5235 5.11194 13.5452 4.33987 13.7948 3.62783C13.7948 3.62783 9.74107 7.433 11.0252 16.6874ZM20.2323 29.9961C16.0789 28.09 17.7598 25.387 17.7598 25.387C17.7978 25.6872 17.9201 25.9704 18.1126 26.2038C18.305 26.4371 18.5598 26.6111 18.8472 26.7055C19.1488 26.0515 19.6289 25.496 20.2323 25.1029C20.7979 25.5296 21.2611 26.0771 21.5883 26.7055C21.8757 26.611 22.1304 26.437 22.3229 26.2037C22.5153 25.9703 22.6377 25.6871 22.6757 25.387C22.6757 25.387 24.3844 28.09 20.2323 29.9961Z" fill="#464449"/>
<path fill-rule="evenodd" clip-rule="evenodd" d="M13.5191 15.6906L13.5598 15.6809C18.1631 14.5372 19.2317 15.6977 19.4802 16.2913C19.965 16.1471 20.4815 16.1494 20.965 16.2977C21.2084 15.7061 22.2673 14.5327 26.8886 15.6809L26.9288 15.6906L27.6433 15.8803C27.7029 15.8969 27.7535 15.9364 27.7839 15.9903C27.8144 16.0441 27.8223 16.1078 27.8058 16.1675C27.7894 16.2271 27.7499 16.2778 27.6962 16.3084C27.6424 16.339 27.5787 16.347 27.5191 16.3307L27.1029 16.2181C27.1158 17.1592 26.8983 19.7993 24.0802 20.0013C21.077 20.2155 20.886 17.4887 20.888 16.7644C20.4585 16.6154 19.9919 16.6122 19.5605 16.7553C19.5637 17.4667 19.3831 20.2162 16.3676 20.0013C13.5495 19.7993 13.332 17.1592 13.3449 16.2181L12.9294 16.3307C12.8998 16.3389 12.8689 16.3412 12.8385 16.3375C12.808 16.3338 12.7786 16.324 12.7518 16.3089C12.7251 16.2938 12.7017 16.2736 12.6828 16.2494C12.6639 16.2252 12.6499 16.1975 12.6417 16.168C12.6335 16.1384 12.6312 16.1075 12.635 16.077C12.6387 16.0465 12.6484 16.0171 12.6635 15.9904C12.6786 15.9637 12.6989 15.9402 12.723 15.9213C12.7472 15.9024 12.7749 15.8885 12.8045 15.8803L13.5191 15.6906Z" fill="#677079"/>
<path opacity="0.5" fill-rule="evenodd" clip-rule="evenodd" d="M23.3838 15.4583C23.9069 15.3958 24.4353 15.3917 24.9592 15.446L23.0816 19.6615C22.6062 19.5299 22.1796 19.2622 21.8544 18.8913L23.3838 15.4583ZM15.8913 15.2511C16.4651 15.1827 17.0447 15.1781 17.6194 15.2375L15.5592 19.8602C15.0383 19.7159 14.5708 19.4226 14.2143 19.0162L15.8906 15.2518L15.8913 15.2511ZM18.2149 15.3508L16.1139 19.9754C16.1959 19.9862 16.2805 19.9948 16.3677 20.0013C16.4207 20.0045 16.4732 20.0078 16.5243 20.0097L18.5838 15.4777C18.4638 15.4275 18.3405 15.3853 18.2149 15.3515V15.3508ZM25.5029 15.5495L23.5871 19.7663C23.6617 19.7763 23.7388 19.784 23.8181 19.7896C23.8667 19.7929 23.9146 19.7961 23.9612 19.7974L25.8395 15.6647C25.7299 15.6191 25.6175 15.5806 25.5029 15.5495Z" fill="#E6E6E6"/>
<path fill-rule="evenodd" clip-rule="evenodd" d="M13.5191 15.6906C13.5323 15.6861 13.546 15.6829 13.5598 15.6809C18.1631 14.5372 19.2317 15.6977 19.4802 16.2913C19.965 16.1471 20.4815 16.1494 20.965 16.2977C21.2084 15.7061 22.2673 14.5327 26.8886 15.6809C26.9023 15.6829 26.9157 15.6861 26.9288 15.6906C27.1585 15.7482 27.3961 15.811 27.6433 15.8803C27.7029 15.8969 27.7535 15.9364 27.7839 15.9903C27.8144 16.0441 27.8223 16.1078 27.8058 16.1675C27.7894 16.2271 27.7499 16.2778 27.6962 16.3084C27.6424 16.339 27.5787 16.347 27.5191 16.3307C27.3767 16.2913 27.2388 16.2537 27.1029 16.2181C27.1158 17.1592 26.8983 19.7993 24.0802 20.0013C21.077 20.2155 20.886 17.4887 20.888 16.7644C20.4585 16.6154 19.9919 16.6122 19.5605 16.7553C19.5637 17.4667 19.3831 20.2162 16.3676 20.0013C13.5495 19.7993 13.332 17.1592 13.3449 16.2181C13.209 16.2537 13.0712 16.2913 12.9294 16.3307C12.8998 16.3389 12.8689 16.3412 12.8385 16.3375C12.808 16.3338 12.7786 16.324 12.7518 16.3089C12.7251 16.2938 12.7017 16.2736 12.6828 16.2494C12.6639 16.2252 12.6499 16.1975 12.6417 16.168C12.6335 16.1384 12.6312 16.1075 12.635 16.077C12.6387 16.0465 12.6484 16.0171 12.6635 15.9904C12.6786 15.9637 12.6989 15.9402 12.723 15.9213C12.7472 15.9024 12.7749 15.8885 12.8045 15.8803C13.0517 15.811 13.2893 15.7476 13.5191 15.6906ZM24.0472 19.534C26.6084 19.3508 26.6621 16.7722 26.6323 16.0984C21.5754 14.8589 21.3689 16.4699 21.3605 16.6L21.3592 16.6149C21.3592 16.6239 21.1314 19.7417 24.0472 19.534ZM13.5598 15.6809L13.6187 15.6796C13.5989 15.6773 13.5789 15.6778 13.5592 15.6809H13.5598ZM13.8161 16.0977C13.7857 16.7722 13.8401 19.3508 16.4006 19.534C19.3165 19.7417 19.0886 16.6239 19.088 16.6149V16.6C19.0789 16.4699 18.8725 14.8582 13.8161 16.0977Z" fill="#464449"/>
</svg>
