<svg width="40" height="40" viewBox="0 0 40 40" fill="none" xmlns="http://www.w3.org/2000/svg">
<path d="M20 40C31.0457 40 40 31.0457 40 20C40 8.9543 31.0457 0 20 0C8.9543 0 0 8.9543 0 20C0 31.0457 8.9543 40 20 40Z" fill="#FFC200"/>
<path fill-rule="evenodd" clip-rule="evenodd" d="M16.0912 25.6473L24.053 25.7223V33.6764L16.0912 33.6013V25.6473Z" fill="#F9DCA4"/>
<path opacity="0.11" fill-rule="evenodd" clip-rule="evenodd" d="M24.0543 25.7081V27.9126C24.0627 28.1645 24.0543 28.4166 24.0291 28.6673C23.9948 28.9359 23.1786 28.6259 23.0815 28.9184C20.2705 31.1994 16.4517 28.4395 16.0912 26.7288L24.0543 25.7081Z" fill="black"/>
<path fill-rule="evenodd" clip-rule="evenodd" d="M20.0227 7.02265C33.1263 7.02265 28.0195 28.7372 20.0227 28.7372C12.4693 28.7372 6.91913 7.02265 20.0227 7.02265Z" fill="#FFE8BE"/>
<path fill-rule="evenodd" clip-rule="evenodd" d="M12.1781 16.721C10.3554 17.5165 11.9049 21.2841 13.0519 21.2673C12.5763 19.7932 12.2828 18.2664 12.1781 16.721ZM28.0318 16.7029C29.8538 17.4977 28.3231 21.2841 27.1774 21.2673C27.6469 19.7863 27.9338 18.2535 28.0318 16.7029Z" fill="#F9DCA4"/>
<path fill-rule="evenodd" clip-rule="evenodd" d="M20.013 7.16699C25.3839 7.16699 27.6343 10.9858 27.7722 15.3974C27.9612 21.4375 24.2784 28.5929 20.0136 28.5929C15.9748 28.5929 12.1903 21.1929 12.4201 15.0913C12.5806 10.8097 14.7683 7.16764 20.0136 7.16764L20.013 7.16699Z" fill="#FFE8BE"/>
<path fill-rule="evenodd" clip-rule="evenodd" d="M12.6687 19.5508C12.6687 19.5508 12.8091 13.9961 17.8014 13.7851C22.7936 13.5741 23.8486 10.9023 23.8486 10.9023C24.8849 13.0806 26.3087 15.0523 28.0506 16.721C31.8085 9.65307 24.8337 6.12039 24.8337 6.12039C24.8337 6.12039 24.9858 2.0123 19.9114 2.07767C14.837 2.14304 15.692 6.40129 15.692 6.40129C15.692 6.40129 8.02726 10.5502 12.6687 19.5508Z" fill="#969696"/>
<path fill-rule="evenodd" clip-rule="evenodd" d="M34.1729 34.1107C33.8597 33.3845 33.0163 31.6181 32.3464 31.1981C29.4998 29.4142 27.1127 29.156 24.0532 27.7676C24.2072 34.767 16.2506 34.6751 16.0907 27.5773C12.8713 29.0233 9.89849 29.8188 6.88166 31.6505C6.26807 32.0233 5.90561 33.2524 5.64218 33.921C7.49087 35.8281 9.70096 37.3479 12.1434 38.3915C14.5859 39.4351 17.2118 39.9817 19.8678 39.9993C22.5238 40.017 25.1567 39.5054 27.6128 38.4943C30.069 37.4833 32.299 35.993 34.1729 34.1107Z" fill="#434955"/>
<path fill-rule="evenodd" clip-rule="evenodd" d="M16.0815 27.5819L20.1132 32.9592C17.5695 37.6712 12.4983 36.5126 11.3533 29.2621C14.1417 28.2006 16.0815 27.5819 16.0815 27.5819Z" fill="white"/>
<path fill-rule="evenodd" clip-rule="evenodd" d="M13.4583 17.4472H19.1657C19.24 17.4472 19.3114 17.4762 19.3646 17.5281C19.4178 17.58 19.4486 17.6506 19.4505 17.7249C19.4647 17.8991 19.4666 18.0741 19.4563 18.2485H20.5437C20.5335 18.0739 20.5354 17.8987 20.5495 17.7243C20.5515 17.6501 20.5824 17.5796 20.6356 17.5279C20.6888 17.4762 20.7601 17.4472 20.8343 17.4472H26.5417C26.5791 17.4472 26.6162 17.4546 26.6507 17.4689C26.6853 17.4832 26.7167 17.5042 26.7431 17.5307C26.7696 17.5571 26.7905 17.5885 26.8049 17.6231C26.8192 17.6576 26.8265 17.6946 26.8265 17.732C26.8265 17.7411 26.8718 21.0686 23.5307 21.0686C21.6136 21.0686 20.9133 19.9825 20.666 19.044H19.3333C19.0861 19.9825 18.3858 21.0686 16.468 21.0686C13.1275 21.0686 13.1735 17.7417 13.1735 17.732C13.1735 17.6566 13.2034 17.5843 13.2566 17.5309C13.3099 17.4775 13.3828 17.4474 13.4583 17.4472Z" fill="#E6E6E6"/>
<path fill-rule="evenodd" clip-rule="evenodd" d="M24.0698 27.5819L20.0957 32.9592C22.6019 37.6712 27.6006 36.5126 28.73 29.2621C25.9811 28.2006 24.0698 27.5819 24.0698 27.5819Z" fill="white"/>
<path fill-rule="evenodd" clip-rule="evenodd" d="M13.4583 17.4472H19.1657C19.24 17.4472 19.3114 17.4762 19.3646 17.5281C19.4178 17.58 19.4486 17.6506 19.4505 17.7249C19.4647 17.8991 19.4666 18.0741 19.4563 18.2485H20.5437C20.5335 18.0739 20.5354 17.8987 20.5495 17.7243C20.5515 17.6501 20.5824 17.5796 20.6356 17.5279C20.6888 17.4762 20.7601 17.4472 20.8343 17.4472H26.5417C26.5791 17.4472 26.6162 17.4546 26.6507 17.4689C26.6853 17.4832 26.7167 17.5042 26.7431 17.5307C26.7696 17.5571 26.7905 17.5885 26.8049 17.6231C26.8192 17.6576 26.8265 17.6946 26.8265 17.732C26.8265 17.7411 26.8718 21.0686 23.5307 21.0686C21.6136 21.0686 20.9133 19.9825 20.666 19.044H19.3333C19.0861 19.9825 18.3858 21.0686 16.468 21.0686C13.1275 21.0686 13.1735 17.7417 13.1735 17.732C13.1735 17.6566 13.2034 17.5843 13.2566 17.5309C13.3099 17.4775 13.3828 17.4474 13.4583 17.4472ZM26.2395 18.0168H21.1042C21.0715 18.3462 21.1113 18.6787 21.2209 18.991C21.3305 19.3033 21.5072 19.5878 21.7386 19.8245C21.9699 20.0612 22.2503 20.2443 22.5601 20.3609C22.8698 20.4776 23.2014 20.5249 23.5314 20.4997C23.873 20.5177 24.2148 20.4674 24.5368 20.3518C24.8588 20.2361 25.1545 20.0575 25.4066 19.8263C25.6588 19.595 25.8623 19.3159 26.0053 19.0051C26.1483 18.6943 26.2279 18.3581 26.2395 18.0162V18.0168ZM18.8951 18.0168H13.7605C13.7722 18.3587 13.8518 18.6948 13.9949 19.0055C14.1379 19.3162 14.3414 19.5953 14.5936 19.8265C14.8457 20.0577 15.1414 20.2362 15.4633 20.3518C15.7853 20.4674 16.127 20.5177 16.4686 20.4997C16.7987 20.525 17.1303 20.4776 17.4401 20.3609C17.7499 20.2442 18.0303 20.0611 18.2617 19.8243C18.4931 19.5876 18.6698 19.303 18.7793 18.9906C18.8889 18.6782 18.9286 18.3456 18.8958 18.0162L18.8951 18.0168Z" fill="#434955"/>
<path d="M20.0907 36.5741C20.3906 36.5741 20.6338 36.331 20.6338 36.0311C20.6338 35.7312 20.3906 35.488 20.0907 35.488C19.7908 35.488 19.5477 35.7312 19.5477 36.0311C19.5477 36.331 19.7908 36.5741 20.0907 36.5741Z" fill="#E6E6E6"/>
<path d="M20.0907 38.5929C20.3906 38.5929 20.6338 38.3498 20.6338 38.0498C20.6338 37.7499 20.3906 37.5068 20.0907 37.5068C19.7908 37.5068 19.5477 37.7499 19.5477 38.0498C19.5477 38.3498 19.7908 38.5929 20.0907 38.5929Z" fill="#E6E6E6"/>
</svg>
