<svg width="55" height="55" viewBox="0 0 55 55" fill="none" xmlns="http://www.w3.org/2000/svg">
<rect width="55" height="55" rx="5" fill="#58B0E0"/>
<g clip-path="url(#clip0_101_199)">
<path d="M29.3333 15H26.6667V28.3333H29.3333V15ZM35.7733 17.8933L33.88 19.7867C35.9867 21.48 37.3333 24.08 37.3333 27C37.3333 32.16 33.16 36.3333 28 36.3333C22.84 36.3333 18.6667 32.16 18.6667 27C18.6667 24.08 20.0133 21.48 22.1067 19.7733L20.2267 17.8933C17.64 20.0933 16 23.3467 16 27C16 33.6267 21.3733 39 28 39C34.6267 39 40 33.6267 40 27C40 23.3467 38.36 20.0933 35.7733 17.8933Z" fill="#F3F3F3"/>
</g>
<defs>
<clipPath id="clip0_101_199">
<rect width="32" height="32" fill="white" transform="translate(12 11)"/>
</clipPath>
</defs>
</svg>
